<svg xmlns="http://www.w3.org/2000/svg"
 viewBox="0 0 350 355"
 preserveAspectRatio="xMidYMid meet"
 fill="#ffffff">
<g transform="translate(0,355) scale(0.1,-0.1)"
stroke="none">
<path d="M1940 3359 c-437 -3 -888 -7 -1002 -8 l-208 -1 -1 -402 c0 -222 -4
-618 -8 -881 -7 -370 -6 -493 4 -550 27 -154 122 -323 231 -408 65 -51 239
-143 346 -183 37 -14 151 -53 253 -86 l185 -61 97 26 c144 39 269 83 348 122
39 19 82 36 97 37 15 1 38 12 51 24 13 12 31 22 40 22 9 0 17 7 17 14 0 8 24
31 53 50 178 118 284 321 323 620 19 138 16 375 -11 1116 -9 239 -14 460 -10
492 3 31 2 58 -2 60 -4 1 -366 0 -803 -3z m776 -148 c-4 -129 -14 -153 -57
-149 -12 2 -23 -3 -25 -10 -1 -7 0 -8 3 -2 6 12 23 13 23 1 0 -15 -83 -72 -97
-67 -7 3 -10 -1 -6 -10 3 -7 1 -14 -4 -14 -6 0 -26 -16 -46 -35 -20 -19 -40
-35 -45 -35 -5 0 -17 -10 -28 -21 -10 -12 -33 -31 -50 -43 -26 -17 -88 -65
-150 -115 -27 -22 -52 -31 -56 -19 -3 8 -20 8 -63 1 -33 -6 -75 -9 -93 -8 -25
2 -40 -4 -67 -31 -19 -18 -35 -31 -35 -28 0 4 -6 1 -14 -5 -7 -6 -20 -9 -28
-6 -9 4 -14 -1 -14 -15 0 -22 8 -21 82 11 25 12 44 27 44 36 0 11 6 14 23 9
12 -3 47 -1 77 6 87 18 147 4 192 -43 37 -39 38 -42 38 -112 -1 -44 -8 -93
-20 -127 -10 -30 -18 -55 -17 -56 158 -75 226 -149 211 -231 -12 -69 -65 -126
-161 -173 -50 -25 -63 -36 -58 -48 37 -95 44 -199 17 -252 -50 -101 -180 -107
-373 -18 -53 24 -76 31 -76 22 0 -8 9 -16 19 -20 10 -3 16 -10 12 -15 -3 -6 0
-10 7 -8 27 3 40 -1 33 -12 -4 -7 0 -9 14 -5 11 4 23 2 27 -4 3 -5 15 -10 26
-10 11 0 18 -4 15 -8 -3 -5 0 -9 7 -9 7 0 36 -5 65 -12 66 -14 160 -5 186 17
10 10 20 16 22 15 2 -2 3 -1 2 2 -2 2 7 12 20 21 12 8 21 21 20 27 -1 7 4 29
11 50 11 32 11 50 0 105 -8 37 -13 73 -13 79 1 7 -3 10 -8 7 -6 -4 -8 2 -6 12
2 11 10 19 18 19 8 1 14 6 12 13 -2 11 18 16 55 15 7 -1 10 3 7 9 -6 9 43 53
60 53 14 0 64 86 67 115 1 14 1 43 0 65 -2 32 -4 36 -11 20 l-9 -20 0 20 c-1
28 -39 87 -51 80 -6 -4 -7 1 -3 12 3 10 3 15 -1 11 -11 -9 -49 28 -53 51 -1
12 13 29 43 51 25 17 62 47 82 66 20 19 40 34 43 34 4 0 31 24 60 54 49 49 96
83 104 74 5 -6 17 -227 24 -443 6 -206 3 -286 -14 -460 -12 -121 -43 -248 -59
-238 -5 3 -6 1 -2 -6 4 -6 4 -21 1 -32 -6 -17 -9 -19 -17 -8 -7 10 -8 7 -4
-10 3 -15 -2 -34 -13 -50 -10 -14 -22 -36 -25 -48 -4 -13 -13 -29 -20 -35 -6
-7 -24 -30 -40 -50 -16 -21 -32 -35 -37 -32 -5 2 -11 -7 -15 -21 -3 -13 -10
-23 -14 -20 -4 2 -16 -7 -26 -20 -10 -14 -24 -25 -31 -25 -7 0 -13 -4 -13 -8
0 -5 -21 -24 -47 -42 -27 -19 -50 -36 -53 -40 -12 -13 -120 -51 -130 -45 -5 3
-10 2 -10 -3 0 -10 -147 -72 -171 -72 -8 0 -19 -4 -24 -9 -6 -6 -28 -14 -50
-20 -22 -5 -78 -19 -124 -30 -74 -19 -87 -20 -112 -7 -16 8 -46 17 -69 21 -24
4 -38 11 -34 17 5 7 -2 9 -20 4 -16 -4 -25 -3 -22 3 3 5 -9 11 -27 14 -29 4
-60 14 -122 38 -11 4 -46 15 -77 25 -32 9 -58 21 -58 27 0 6 -3 8 -6 4 -11
-11 -156 49 -190 78 -6 6 -21 16 -32 24 -12 8 -18 19 -15 24 3 6 1 7 -4 4 -6
-4 -21 3 -34 15 -18 15 -20 22 -10 26 7 2 37 25 65 51 29 25 90 78 136 116 46
39 104 88 130 110 93 79 102 87 120 90 11 2 17 -1 14 -8 -3 -8 8 -12 31 -13
23 0 31 2 23 7 -13 8 -3 13 17 9 5 -1 7 2 3 6 -10 9 58 63 105 81 20 8 37 18
37 22 0 5 11 13 24 19 22 10 24 8 31 -24 7 -38 32 -74 52 -74 14 0 65 99 57
112 -11 17 -21 6 -30 -34 -7 -33 -14 -44 -32 -46 -26 -4 -34 12 -36 73 0 24
-4 41 -8 39 -5 -3 -8 4 -8 16 0 12 -5 18 -10 15 -7 -4 -8 10 -5 42 4 29 0 66
-8 95 -8 25 -11 50 -6 55 5 5 2 20 -5 35 -18 35 -6 50 48 58 38 6 46 4 46 -9
0 -13 2 -14 9 -2 7 11 12 4 20 -27 7 -23 23 -50 38 -62 35 -28 42 -17 10 16
-15 14 -29 43 -33 63 -3 20 -7 42 -9 49 -7 19 -289 16 -376 -5 -38 -9 -69 -19
-69 -23 0 -4 24 -1 53 7 28 7 91 16 140 20 l87 6 0 -27 0 -26 -159 0 -160 0
93 153 c51 83 100 164 110 179 17 26 19 26 124 26 59 1 114 -2 122 -6 9 -4 15
-22 16 -44 0 -21 1 -84 2 -140 2 -71 5 -98 12 -88 7 11 10 11 10 2 0 -10 3
-10 14 0 12 11 11 14 -3 20 -9 4 -11 7 -6 7 6 1 9 21 6 47 -2 31 0 44 7 40 6
-4 9 -13 6 -21 -3 -8 1 -29 10 -47 9 -17 19 -49 23 -70 4 -31 15 -45 49 -70
l44 -31 -37 -34 c-20 -19 -42 -35 -47 -36 -16 -3 -34 -21 -29 -29 2 -5 -1 -8
-7 -8 -7 0 -11 -15 -9 -37 4 -69 0 -93 -16 -93 -8 0 -15 -8 -15 -17 0 -15 2
-16 10 -3 8 13 10 13 10 -2 0 -12 5 -15 15 -11 9 3 23 -1 33 -10 48 -42 205
-97 276 -97 126 0 176 101 125 253 -11 34 -22 63 -24 65 -1 2 -20 -4 -41 -12
-55 -21 -169 -44 -253 -52 -39 -4 -74 -11 -77 -15 -3 -5 0 -9 6 -9 6 0 8 -5 5
-10 -6 -10 28 -6 65 7 8 3 31 7 50 9 74 8 97 12 153 25 31 7 57 17 57 22 0 4
10 -1 21 -12 13 -12 19 -26 15 -36 -3 -9 -2 -13 4 -10 6 3 10 4 10 1 0 -2 3
-13 6 -23 5 -15 4 -16 -6 -3 -10 12 -11 10 -5 -10 15 -57 17 -76 6 -60 -8 11
-10 8 -5 -16 14 -73 -98 -111 -200 -69 -14 6 -17 5 -12 -3 7 -12 -64 17 -74
30 -3 3 -18 10 -33 13 -19 5 -26 12 -23 21 4 12 1 12 -14 4 -14 -7 -20 -7 -20
0 0 5 -11 10 -25 10 -14 0 -25 5 -25 11 0 5 5 7 12 3 7 -4 8 -3 4 4 -4 6 -4
35 0 63 5 40 14 57 37 78 17 14 47 42 66 61 70 68 81 76 91 60 6 -8 10 -19 10
-25 0 -5 -4 -4 -9 3 -6 9 -25 -4 -71 -48 l-63 -61 54 6 c76 9 268 55 274 66 3
4 -3 14 -15 21 -23 15 -27 47 -5 50 8 0 21 1 28 2 8 1 11 -10 9 -31 -2 -18 1
-33 6 -33 27 0 121 58 162 100 70 69 73 119 13 190 -19 22 -39 38 -43 35 -13
-8 -8 -42 7 -42 6 0 10 5 7 11 -3 6 2 2 10 -8 9 -11 14 -29 11 -40 -3 -12 -2
-15 1 -8 10 22 26 13 18 -10 -4 -13 -7 -36 -8 -52 0 -22 -13 -42 -45 -72 -25
-24 -49 -40 -53 -38 -4 3 -8 1 -8 -4 0 -5 -10 -9 -22 -8 -13 1 -22 7 -21 14 2
6 -4 9 -12 6 -8 -4 -15 -1 -15 5 0 6 -6 11 -14 11 -15 0 -27 23 -22 43 1 6 1
9 -1 5 -9 -15 -25 -8 -19 8 4 10 2 13 -6 8 -8 -5 -9 -2 -5 9 4 12 1 17 -11 17
-14 0 -15 2 -2 9 8 6 18 7 24 4 5 -3 6 -1 2 5 -8 14 6 45 20 42 5 -1 13 13 18
30 5 17 21 39 35 49 28 20 77 22 74 3 -2 -6 4 -9 12 -6 23 9 18 20 -21 43
l-36 21 -38 -30 c-21 -17 -52 -55 -69 -85 -17 -30 -36 -55 -41 -55 -14 0 -13
1 15 51 50 89 76 141 73 144 -8 7 -183 46 -249 55 -40 6 -74 11 -75 13 -1 1
-4 12 -8 23 -6 19 10 35 106 111 153 121 149 119 187 104 17 -8 28 -18 24 -24
-3 -5 -2 -7 4 -4 17 11 35 -41 22 -66 -9 -19 -8 -19 11 3 21 24 21 24 10 2 -6
-13 -9 -30 -6 -38 3 -8 -1 -40 -9 -71 -14 -55 -25 -78 -25 -54 0 7 -4 10 -9 7
-14 -9 -101 6 -95 15 3 5 -12 9 -33 9 -21 0 -57 5 -81 10 -27 7 -49 7 -60 1
-13 -7 -8 -11 23 -16 105 -16 164 -28 217 -45 l57 -18 18 47 c12 30 18 73 18
123 0 71 -2 80 -26 102 -42 39 -97 51 -170 37 -34 -7 -69 -16 -78 -20 -9 -5
-44 -21 -78 -37 -66 -30 -73 -38 -47 -48 8 -3 12 -10 9 -16 -3 -5 -4 -10 -1
-10 3 0 12 13 20 29 16 29 76 61 76 39 0 -6 8 -4 18 5 15 13 21 14 31 4 10 -9
11 -8 5 8 -7 18 -6 19 11 5 17 -13 18 -13 13 0 -4 10 2 15 18 16 20 2 18 -3
-19 -32 -23 -19 -54 -45 -68 -57 -38 -33 -82 -55 -99 -50 -13 4 -13 3 0 -7 11
-9 12 -13 2 -17 -6 -2 -10 -9 -6 -14 8 -14 -9 -11 -45 7 -70 35 -261 1 -261
-47 0 -13 -10 -20 -37 -24 -103 -17 -194 -37 -250 -56 -57 -18 -62 -23 -53
-40 6 -10 17 -19 24 -19 15 0 29 -27 21 -41 -3 -5 9 -31 27 -58 l33 -49 29 40
c49 68 40 33 -11 -44 -66 -97 -113 -182 -113 -201 0 -17 34 -32 50 -22 5 3 10
2 10 -3 0 -10 129 -39 210 -47 l55 -5 -29 24 c-17 14 -34 22 -39 19 -6 -3 -7
-2 -4 4 3 5 -9 25 -28 43 -19 19 -35 38 -35 42 0 21 27 2 96 -64 73 -71 105
-95 89 -67 -17 30 -38 48 -48 42 -6 -4 -8 0 -4 11 4 10 3 15 -3 11 -6 -3 -10
1 -10 10 0 10 -5 13 -12 9 -7 -5 -9 -2 -5 9 4 11 2 14 -7 11 -7 -3 -16 1 -19
9 -4 11 5 15 38 15 23 1 49 3 56 4 15 3 25 -46 33 -152 l5 -65 -71 -55 c-87
-68 -118 -86 -118 -68 -1 9 -4 9 -13 -2 -16 -20 -65 -45 -73 -37 -4 3 -16 2
-27 -4 -14 -8 -18 -8 -13 0 5 7 -4 9 -26 5 -26 -5 -30 -3 -18 6 12 9 10 11
-11 8 -26 -5 -54 15 -44 31 3 5 1 11 -4 13 -5 1 -12 25 -15 51 -3 28 -2 46 4
42 5 -3 5 7 0 25 -6 21 -5 28 2 24 7 -5 9 0 6 14 -6 23 6 30 16 10 3 -7 4 -4
1 8 -4 15 0 21 12 22 33 2 84 -9 79 -17 -3 -4 6 -6 19 -3 14 2 36 -3 51 -13
15 -9 23 -12 20 -6 -4 6 -3 11 3 11 5 0 13 -5 17 -11 3 -6 16 -8 29 -5 13 3
39 -1 58 -9 20 -8 43 -12 52 -8 10 3 21 0 26 -8 7 -11 9 -11 9 2 0 27 -21 36
-100 42 -84 7 -206 31 -255 51 l-32 14 -16 -47 c-40 -111 -30 -203 26 -243 26
-19 45 -23 99 -23 40 0 72 5 80 13 6 6 24 12 38 12 27 0 152 57 185 85 20 16
20 16 -2 12 -31 -7 -36 6 -12 26 10 9 21 17 23 17 9 0 24 -58 17 -67 -8 -14
-119 -70 -154 -79 -16 -4 -32 -16 -37 -29 -12 -32 -26 -38 -43 -20 -21 21 -34
19 -63 -10 -30 -30 -151 -136 -213 -185 -23 -19 -59 -49 -80 -66 -120 -103
-146 -124 -157 -124 -7 0 -22 16 -34 35 -12 19 -25 35 -29 35 -3 0 -15 16 -25
35 -11 19 -23 35 -28 35 -5 0 -7 4 -3 10 3 5 -5 26 -18 47 -13 21 -24 42 -24
46 -1 4 -8 28 -18 53 l-17 46 33 32 c19 18 66 57 104 87 39 29 72 56 75 59 3
3 39 32 80 65 41 33 77 62 80 65 23 24 80 59 80 49 0 -26 -24 -89 -34 -89 -6
0 -4 -5 4 -10 13 -9 13 -11 0 -20 -8 -5 -10 -10 -5 -10 6 0 11 -20 11 -44 1
-45 40 -129 56 -120 4 3 8 1 8 -5 0 -5 10 -13 23 -17 12 -4 25 -12 29 -18 5
-8 8 -7 8 2 0 8 11 11 35 8 19 -3 37 0 40 5 4 5 -15 9 -41 9 -114 0 -173 119
-131 261 8 24 12 50 9 58 -3 8 0 11 7 7 6 -4 11 -1 11 6 0 7 -29 28 -65 47
-72 37 -139 105 -148 150 -3 16 -1 46 4 67 14 51 99 134 157 153 23 8 42 19
42 25 -1 6 -9 36 -20 66 -11 32 -19 82 -20 121 0 77 24 123 80 152 35 18 45
18 207 4 11 -1 19 -5 16 -9 -2 -5 1 -8 6 -8 20 0 26 -2 66 -25 54 -31 85 -40
85 -24 0 7 7 20 16 30 12 13 12 19 3 25 -8 4 -10 3 -5 -4 4 -8 -3 -16 -18 -22
-29 -10 -59 -3 -50 12 3 5 0 8 -7 7 -8 -2 -36 7 -64 20 -64 29 -194 40 -251
20 -21 -7 -43 -12 -47 -11 -5 1 -6 -2 -2 -8 10 -17 -6 -34 -17 -19 -8 11 -9
10 -5 -3 3 -9 -1 -19 -10 -22 -9 -4 -13 -13 -9 -22 4 -12 2 -15 -9 -10 -13 4
-14 2 -5 -14 5 -10 6 -21 2 -24 -12 -7 -7 -133 6 -149 22 -26 20 -71 -5 -90
-13 -11 -30 -16 -38 -13 -8 3 -15 0 -15 -6 0 -14 -30 -48 -43 -48 -5 0 -3 8 4
18 11 13 9 13 -9 -2 -12 -11 -21 -25 -18 -32 3 -7 -2 -15 -10 -18 -9 -3 -12
-11 -8 -18 5 -8 2 -9 -9 -5 -13 5 -17 1 -18 -16 -1 -12 -1 -26 0 -31 1 -5 -4
-13 -11 -17 -7 -5 -8 -9 -3 -9 6 0 11 -16 12 -35 2 -44 38 -104 69 -115 13 -5
24 -16 24 -25 0 -8 5 -15 10 -15 6 0 15 -10 21 -22 9 -22 9 -22 5 2 -5 25 -5
25 12 4 10 -11 24 -18 32 -16 13 5 13 3 1 -11 -7 -10 -10 -17 -6 -17 7 0 -200
-167 -248 -200 -12 -8 -33 -25 -47 -38 -14 -13 -43 -36 -65 -50 -22 -15 -43
-31 -46 -35 -19 -26 -19 90 -4 933 3 190 7 458 8 595 l2 250 60 5 c33 3 473 7
977 8 l918 3 -4 -120z m12 -293 c0 -84 4 -178 7 -208 6 -54 5 -56 -32 -91 -85
-82 -356 -299 -372 -299 -25 0 -33 11 -19 28 7 8 14 29 16 46 5 54 8 71 16 89
14 30 -22 155 -39 140 -4 -5 -5 0 -2 9 3 10 3 17 -1 16 -4 -1 -22 5 -41 13
l-34 15 35 29 c20 17 61 50 93 75 31 25 68 55 81 68 13 12 27 22 32 22 5 0 17
10 28 21 10 12 46 42 79 67 33 26 62 50 63 54 2 4 8 8 13 8 6 0 21 11 35 25
14 14 28 25 32 25 5 0 9 -69 10 -152z m-853 -501 c25 -26 17 -37 -25 -37 -31
0 -40 -4 -40 -17 0 -15 -2 -15 -17 0 -11 10 -41 17 -80 19 -62 3 -80 11 -45
22 9 3 5 4 -10 2 -16 -2 -28 1 -28 5 0 11 13 13 64 9 24 -1 36 2 32 8 -11 18
131 7 149 -11z m-385 -90 c0 -7 -4 -6 -11 3 -8 12 -9 10 -4 -7 7 -27 -3 -66
-15 -58 -15 9 -23 -17 -9 -27 12 -8 12 -9 0 -6 -16 5 -51 -25 -51 -43 0 -6 -7
-8 -16 -5 -11 4 -15 2 -11 -7 3 -8 -1 -14 -8 -14 -8 0 -11 7 -7 15 4 11 1 14
-10 10 -9 -4 -15 0 -15 8 0 8 4 14 8 14 14 0 3 35 -16 52 -28 24 -9 40 57 46
43 5 48 7 28 13 l-25 7 26 1 c14 1 31 -5 38 -11 11 -11 12 -10 6 1 -4 8 -2 17
6 21 15 10 29 4 29 -13z m570 12 c0 11 4 10 16 -5 8 -10 12 -13 8 -5 -6 11 -1
12 22 6 16 -4 37 -7 47 -7 10 0 15 -4 11 -10 -4 -7 -2 -8 4 -4 7 4 21 -1 31
-11 20 -18 20 -19 -1 -60 -12 -23 -26 -39 -31 -36 -6 3 -7 1 -3 -6 4 -6 0 -19
-10 -28 -15 -16 -17 -16 -30 2 -8 11 -12 25 -9 33 2 7 1 10 -5 7 -5 -3 -17 9
-26 27 -9 18 -20 35 -24 38 -14 10 -27 45 -22 59 4 11 6 11 13 0 7 -12 9 -12
9 0z m-56 -23 c25 -43 111 -176 157 -243 27 -40 49 -77 49 -83 0 -14 -291 -10
-295 4 -2 6 -12 43 -24 81 -11 39 -28 105 -37 148 -9 43 -22 84 -30 92 -8 7
-14 17 -14 20 0 4 41 5 91 3 77 -2 94 -6 103 -22z m-554 -378 c0 -10 7 -18 15
-18 8 0 12 -6 9 -14 -3 -9 1 -13 12 -13 27 3 27 -20 -1 -27 -26 -7 -65 -1
-100 14 -11 5 -40 14 -65 21 l-45 11 28 24 c24 20 37 23 87 21 50 -2 60 -5 60
-19z m698 6 c6 -2 12 2 12 9 0 8 4 7 9 -3 6 -8 7 -18 5 -22 -3 -4 3 -8 13 -9
19 -1 -97 -38 -135 -43 -18 -3 -22 0 -18 13 4 11 2 11 -9 -3 -20 -26 -31 -13
-13 13 8 12 17 19 20 16 2 -3 15 6 28 20 22 24 36 25 88 9z"/>
<path d="M1287 2640 c-35 -11 -75 -52 -83 -86 -13 -51 22 -234 44 -234 4 0 32
10 62 21 30 12 101 29 158 39 97 17 121 24 111 34 -8 8 -188 -17 -183 -25 3
-5 1 -9 -5 -9 -5 0 -13 5 -17 11 -3 6 -9 7 -13 3 -12 -17 -47 -31 -71 -30 -14
1 -28 -3 -32 -9 -4 -5 -8 0 -8 13 0 13 -4 21 -8 18 -5 -3 -7 11 -6 30 2 24 0
32 -8 28 -8 -5 -9 0 -5 17 4 13 7 42 7 64 1 56 29 87 79 89 22 0 37 4 35 8 -3
5 -1 8 5 8 5 0 13 -4 16 -10 3 -5 13 -10 21 -10 8 0 12 5 9 10 -3 6 -1 10 4
10 6 0 11 -4 11 -10 0 -5 18 -13 40 -16 22 -4 37 -10 34 -15 -3 -5 9 -9 26 -9
21 0 29 -4 24 -12 -5 -7 -2 -9 7 -6 13 5 42 -15 34 -23 -1 -2 3 -10 11 -17 8
-7 14 -11 15 -10 11 46 9 49 -53 78 -110 51 -200 68 -261 50z"/>
<path d="M1536 2298 c-135 -216 -171 -278 -163 -278 6 0 85 126 166 263 24 39
21 53 -3 15z"/>
<path d="M1170 2258 c-97 -55 -135 -108 -127 -177 4 -39 12 -52 52 -88 37 -34
133 -93 150 -93 1 0 6 12 10 27 3 14 26 57 51 95 24 38 44 71 44 74 0 3 -11
20 -25 38 -14 18 -25 38 -25 45 0 6 -12 16 -26 21 -16 6 -24 17 -23 27 3 22
-10 63 -19 63 -4 0 -32 -14 -62 -32z m55 -47 c-2 -2 13 -19 33 -38 20 -20 36
-40 34 -45 -1 -5 4 -11 12 -14 17 -6 10 -34 -11 -47 -7 -4 -13 -13 -13 -18 0
-6 5 -7 12 -3 7 4 8 3 4 -4 -4 -7 -14 -12 -23 -12 -9 0 -14 -3 -10 -6 10 -10
-14 -62 -31 -68 -9 -3 -24 -9 -32 -12 -8 -4 -12 -3 -8 1 8 8 -17 37 -29 33 -4
-2 -9 2 -11 7 -5 14 -45 34 -56 28 -5 -4 -6 -1 -3 4 4 6 -2 18 -13 28 -13 12
-18 26 -15 41 3 13 7 35 10 49 3 14 10 23 15 20 5 -3 7 0 4 8 -3 9 11 22 40
38 29 15 41 26 33 31 -8 5 -3 8 11 8 15 0 21 4 17 13 -4 6 2 1 13 -13 12 -14
19 -26 17 -29z"/>
<path d="M1620 2270 l-65 -7 68 -1 c39 -1 67 2 67 8 0 6 -1 9 -2 8 -2 -1 -32
-4 -68 -8z"/>
<path d="M1560 2240 l-25 -8 28 -1 c15 -1 27 4 27 9 0 6 -1 10 -2 9 -2 -1 -14
-5 -28 -9z"/>
<path d="M1600 2243 c0 -10 78 -9 87 1 3 3 -15 6 -40 6 -26 0 -47 -3 -47 -7z"/>
<path d="M1523 2202 c-7 -4 31 -6 85 -4 140 4 153 9 32 10 -58 1 -111 -2 -117
-6z"/>
<path d="M1497 2173 c-3 -5 53 -8 125 -8 71 0 119 3 106 7 -33 9 -226 10 -231
1z"/>
<path d="M1558 2143 c23 -2 61 -2 85 0 23 2 4 4 -43 4 -47 0 -66 -2 -42 -4z"/>
<path d="M1517 2113 c-3 -5 47 -8 112 -9 64 0 105 3 91 7 -33 9 -198 11 -203
2z"/>
<path d="M1483 2073 c32 -2 81 -2 110 0 29 2 3 3 -58 3 -60 0 -84 -1 -52 -3z"/>
<path d="M1898 2263 c17 -2 47 -2 65 0 17 2 3 4 -33 4 -36 0 -50 -2 -32 -4z"/>
<path d="M1940 2239 c25 -4 56 -7 70 -7 23 0 22 1 -5 8 -16 4 -48 8 -70 8
l-40 -1 45 -8z"/>
<path d="M1917 2203 c18 -2 50 -2 70 0 21 2 7 4 -32 4 -38 0 -55 -2 -38 -4z"/>
<path d="M1933 2173 c20 -2 54 -2 75 0 20 2 3 4 -38 4 -41 0 -58 -2 -37 -4z"/>
<path d="M1927 2143 c18 -2 50 -2 70 0 21 2 7 4 -32 4 -38 0 -55 -2 -38 -4z"/>
<path d="M1921 2116 c2 -3 40 -7 83 -9 49 -3 74 -2 65 4 -14 8 -157 13 -148 5z"/>
<path d="M1993 2073 c9 -2 25 -2 35 0 9 3 1 5 -18 5 -19 0 -27 -2 -17 -5z"/>
<path d="M2063 2073 c9 -2 25 -2 35 0 9 3 1 5 -18 5 -19 0 -27 -2 -17 -5z"/>
<path d="M1992 2039 c42 -4 96 -13 119 -19 61 -17 60 -4 -2 14 -29 9 -84 15
-123 15 l-71 -2 77 -8z"/>
<path d="M3003 1131 c-77 -21 -106 -34 -197 -89 -43 -26 -61 -32 -64 -23 -9
26 -41 50 -82 61 -48 13 -165 -7 -227 -38 -36 -19 -36 -19 -10 -24 16 -3 24
-1 20 5 -3 5 3 6 15 3 11 -4 23 -2 27 4 3 5 14 10 24 10 18 0 18 -3 4 -42 -18
-52 -27 -132 -14 -124 5 3 9 21 9 39 0 42 33 119 49 113 7 -3 10 1 7 8 -3 7 2
13 12 13 17 0 74 -71 74 -92 0 -6 -26 -22 -57 -35 -32 -13 -65 -31 -73 -40
-17 -19 -298 -160 -319 -160 -11 0 -11 3 -1 16 8 8 9 14 4 13 -21 -4 -26 2
-14 16 7 9 10 18 7 22 -3 3 0 20 8 38 7 19 10 36 7 40 -4 3 2 3 12 -1 15 -6
17 -4 11 16 -5 15 -4 20 4 16 6 -4 11 -3 11 2 0 4 9 18 20 30 12 12 16 22 10
22 -16 0 -90 -71 -106 -101 -17 -34 -19 -110 -2 -127 8 -8 4 -14 -18 -23 -168
-65 -552 -85 -764 -40 -35 7 -35 8 -32 53 5 61 -22 111 -92 175 -58 54 -144
109 -153 99 -4 -3 -1 -6 6 -6 7 0 9 -5 5 -12 -4 -6 -3 -8 3 -5 10 6 84 -67 97
-95 5 -10 7 -10 12 0 8 17 24 5 17 -13 -3 -8 -1 -15 4 -15 6 0 15 -10 22 -22
6 -13 9 -15 6 -5 -3 11 -1 16 6 11 6 -3 9 -15 6 -25 -3 -11 -2 -17 3 -14 11 7
22 -24 13 -37 -3 -7 -1 -8 5 -4 8 5 12 -3 12 -24 0 -29 -2 -32 -24 -26 -13 3
-31 9 -40 12 -9 3 -16 1 -16 -5 0 -11 37 -31 70 -37 8 -2 16 -7 18 -12 1 -5
10 -18 18 -28 9 -10 12 -13 8 -5 -6 11 -3 13 12 6 10 -4 29 -10 42 -13 23 -4
23 -5 -10 -32 -30 -26 -33 -33 -35 -91 -1 -35 -3 -73 -4 -84 -1 -11 1 -37 5
-57 l8 -37 -63 19 c-86 25 -240 90 -257 106 -7 8 -21 14 -30 14 -27 0 -107 47
-104 61 2 9 -1 9 -12 -1 -9 -7 -16 -15 -16 -19 0 -4 27 -20 60 -36 33 -17 60
-36 60 -43 0 -19 -29 -73 -53 -99 -23 -25 -47 -29 -65 -11 -14 14 -16 90 -3
136 6 20 6 32 0 32 -5 0 -12 -14 -16 -30 -7 -35 -12 -34 -19 5 -7 37 4 65 22
58 8 -3 14 1 14 10 0 8 -9 17 -20 20 -21 5 -28 27 -9 27 18 0 76 -39 83 -55 3
-8 13 -15 21 -15 10 0 13 -5 9 -12 -5 -8 2 -9 27 -5 26 5 30 4 19 -4 -12 -8
-9 -10 12 -6 15 2 25 0 22 -4 -8 -13 10 -11 26 3 11 10 11 9 0 -6 -14 -18 -13
-18 10 -11 14 4 22 4 18 0 -14 -15 41 -50 95 -60 28 -6 44 -2 72 15 37 23 60
54 50 69 -3 5 0 11 7 13 9 3 8 9 -5 22 -22 22 -22 33 0 15 15 -13 16 -12 11 9
-4 12 -3 22 2 22 4 0 10 7 13 15 8 18 -51 78 -69 71 -8 -3 -14 -1 -14 4 0 6
-7 10 -17 10 -26 0 -111 54 -91 58 9 2 26 -2 37 -8 12 -6 21 -7 21 -3 -1 4
-34 24 -74 44 -50 24 -71 30 -64 19 6 -9 20 -21 31 -26 22 -10 34 -46 12 -38
-7 3 -16 0 -21 -7 -5 -8 -3 -10 7 -4 11 6 12 5 1 -6 -15 -16 -32 -2 -35 29 0
12 -3 20 -5 18 -6 -7 -52 45 -47 54 3 4 -6 7 -19 6 -19 -2 -23 1 -18 13 5 14
3 14 -10 3 -13 -10 -22 -11 -38 -2 -11 6 -18 15 -15 21 4 5 1 8 -7 7 -7 -2
-12 2 -11 7 0 6 -10 19 -25 29 -14 11 -22 14 -18 8 5 -8 2 -10 -8 -6 -9 3 -16
14 -17 23 0 12 -2 12 -8 -4 -7 -18 -8 -17 -13 7 l-5 27 34 -14 c18 -8 43 -21
55 -30 13 -8 30 -15 38 -15 9 0 25 -8 36 -17 38 -34 84 -63 84 -54 0 5 17 8
38 5 35 -4 35 -3 -8 9 -54 15 -110 44 -110 57 0 6 -4 10 -9 10 -5 0 -33 11
-64 25 l-55 26 14 28 c8 15 23 36 34 46 20 18 21 18 35 -1 8 -10 18 -30 21
-44 3 -14 10 -36 14 -50 8 -25 8 -25 9 5 1 16 -7 49 -16 73 -16 38 -21 42 -48
40 -24 -2 -34 -11 -50 -45 -16 -35 -24 -42 -42 -38 -12 3 -23 0 -26 -8 -2 -6
-4 3 -3 21 1 34 30 67 48 56 5 -3 7 0 6 8 -2 8 4 12 15 10 9 -2 17 1 17 6 0
11 113 2 121 -10 5 -8 79 -20 79 -13 0 2 -37 18 -82 35 -63 24 -93 31 -126 27
-47 -5 -92 -39 -92 -69 0 -23 -5 -23 -41 3 -54 38 -196 98 -272 113 -185 38
-320 6 -418 -100 -66 -73 -67 -54 15 -245 41 -96 88 -190 105 -211 69 -82 220
-90 467 -23 126 35 140 37 163 23 l26 -14 -4 -135 c-4 -162 7 -198 68 -223 21
-8 123 -24 227 -36 104 -11 197 -23 206 -26 29 -9 53 41 53 114 l0 64 40 -7
c124 -21 174 -25 315 -25 135 0 298 16 363 36 15 5 18 0 16 -28 -5 -66 1 -96
26 -122 30 -33 76 -34 195 -5 47 11 120 24 162 30 94 12 134 28 175 71 59 62
63 145 11 254 l-21 46 27 25 27 25 107 -35 c142 -47 217 -61 306 -55 97 6 151
33 193 95 37 55 163 323 163 347 0 25 -120 138 -176 166 -68 34 -208 38 -311
11z m227 -21 c0 -4 12 -5 28 -3 21 4 24 2 12 -6 -12 -9 -10 -11 13 -11 15 0
27 -4 27 -10 0 -5 6 -10 13 -10 8 0 22 -9 32 -20 10 -11 22 -17 26 -14 5 3 9
-2 9 -10 0 -9 6 -16 13 -16 6 0 18 -14 25 -30 8 -17 18 -28 23 -24 5 3 9 0 9
-5 0 -6 -5 -11 -11 -11 -6 0 -9 -7 -5 -15 3 -8 2 -15 -2 -15 -8 0 -38 -70 -48
-112 -3 -16 -10 -28 -15 -28 -5 0 -9 -10 -9 -22 0 -19 -2 -20 -10 -8 -8 12
-10 10 -10 -11 0 -35 -26 -69 -39 -50 -6 9 -11 10 -15 2 -9 -14 2 -33 15 -26
15 10 10 -12 -6 -25 -13 -11 -15 -10 -9 6 5 18 4 18 -11 -1 -16 -19 -16 -19
-10 10 l7 30 -15 -25 c-8 -14 -10 -29 -5 -34 13 -15 9 -31 -4 -18 -7 7 -19 12
-28 12 -12 0 -13 -2 -1 -9 10 -6 2 -9 -23 -9 -21 0 -40 -3 -44 -7 -4 -4 5 -6
20 -3 15 3 25 1 22 -3 -3 -5 -15 -9 -27 -10 -20 -1 -20 -2 3 -9 32 -10 7 -12
-45 -3 l-40 7 30 7 c18 4 -7 7 -65 8 -52 0 -111 6 -130 11 -19 6 -62 13 -95
15 -33 2 -61 8 -63 13 -1 5 -14 7 -28 4 -16 -3 -30 1 -35 9 -6 10 -9 7 -10
-11 0 -14 -3 -20 -5 -13 -6 13 -34 6 -34 -9 0 -5 5 -6 10 -3 16 10 11 -1 -7
-16 -11 -10 -14 -10 -9 -1 4 6 2 12 -3 12 -6 0 -11 -9 -11 -19 0 -11 -15 -28
-35 -41 -49 -30 -191 -100 -204 -100 -6 0 -11 -8 -11 -17 0 -13 3 -14 12 -5
19 19 38 14 38 -11 0 -34 56 -116 87 -128 16 -6 46 -8 68 -6 34 5 37 4 23 -7
-10 -7 -15 -16 -11 -19 3 -4 2 -8 -3 -8 -5 -1 -22 -3 -39 -5 -16 -2 -48 5 -72
16 -24 10 -43 18 -43 16 0 -10 39 -45 55 -49 11 -3 2 -5 -20 -4 -82 2 -151 -4
-130 -12 13 -5 -9 -11 -70 -19 -65 -9 -91 -9 -96 -1 -4 7 -12 8 -18 5 -6 -4
-11 -4 -9 1 1 4 -3 25 -9 45 -6 21 -9 47 -6 58 3 13 0 20 -8 20 -8 1 -2 8 14
16 15 8 27 17 27 19 0 3 -12 5 -27 5 -23 0 -25 -2 -13 -11 12 -9 11 -10 -5 -4
-46 15 -75 17 -75 6 0 -7 -4 -10 -8 -7 -5 3 -37 0 -73 -5 -97 -15 -327 -20
-335 -8 -4 8 -10 7 -16 -2 -6 -9 -11 -10 -14 -4 -2 6 -19 9 -38 7 -35 -4 -59
21 -30 32 8 3 14 13 14 23 0 15 3 14 16 -5 8 -12 20 -20 25 -17 5 4 9 1 9 -4
0 -23 51 -10 80 19 25 26 28 33 19 54 -8 16 -8 30 -1 42 8 14 11 6 17 -37 8
-56 21 -82 43 -87 18 -3 82 28 82 40 0 5 -6 6 -12 2 -8 -5 -7 0 2 11 13 15 15
16 18 3 4 -23 60 -47 96 -41 17 2 43 4 58 5 16 1 25 5 21 11 -4 6 0 8 8 5 15
-6 42 16 32 25 -2 3 9 3 26 1 21 -4 31 -1 31 8 0 10 2 10 9 0 6 -10 10 -7 15
13 4 15 9 25 13 22 3 -3 16 -2 30 4 15 5 22 5 18 -1 -10 -17 59 -1 72 16 8 10
13 13 13 6 0 -9 5 -10 18 -3 40 24 55 41 55 65 0 14 3 23 8 20 5 -3 9 0 9 5 0
6 -5 11 -11 11 -5 0 -7 5 -4 10 3 6 11 10 16 10 6 0 8 -4 4 -9 -3 -5 -1 -12 5
-16 5 -3 11 4 11 17 1 16 4 12 9 -12 4 -19 8 -26 9 -15 1 18 2 18 17 -3 8 -12
23 -22 32 -22 14 0 14 2 3 9 -11 7 -9 10 8 16 23 7 45 40 36 54 -3 5 5 7 17 4
17 -3 19 -2 10 5 -11 7 -11 10 2 15 9 4 15 1 13 -5 -3 -19 73 -16 87 3 6 9 16
17 21 18 31 4 46 14 41 27 -3 8 -2 13 3 10 5 -3 11 2 14 13 3 14 11 17 35 13
22 -3 37 2 53 17 12 11 26 18 32 14 5 -3 12 -2 16 3 12 17 73 44 83 37 7 -3 8
-1 4 5 -6 11 -2 13 20 12 3 -1 13 9 23 21 15 18 27 21 84 21 87 0 100 4 120
38 21 35 22 99 3 106 -9 3 -13 15 -10 29 2 12 -3 28 -11 35 -8 7 -15 19 -15
26 0 8 -4 14 -10 14 -5 0 -10 7 -10 15 0 9 6 12 17 8 10 -4 14 -2 10 4 -4 5 6
10 23 10 17 0 30 -3 30 -7z m-227 -19 c-24 -16 -56 -80 -33 -66 6 3 7 -1 4 -9
-3 -9 -11 -13 -17 -9 -7 4 -2 -6 11 -21 25 -33 29 -66 7 -66 -15 0 -19 11 -16
40 2 12 0 12 -7 1 -10 -14 -19 -5 -17 19 0 8 -5 21 -12 28 -7 7 -13 20 -13 28
0 8 -4 12 -10 9 -5 -3 -10 1 -10 9 0 10 6 13 17 9 10 -4 14 -2 10 4 -4 6 6 9
23 8 16 -1 27 2 24 7 -3 4 2 8 10 8 9 0 16 5 16 11 0 5 5 7 11 3 6 -4 7 -9 2
-13z m-2723 -11 c12 -8 12 -10 -3 -16 -10 -4 -17 -17 -17 -33 0 -15 -3 -31 -7
-35 -4 -3 -8 -14 -10 -24 -12 -82 -13 -111 -3 -117 6 -3 7 -11 4 -17 -4 -7 -2
-8 4 -4 8 4 12 0 12 -11 0 -14 2 -15 9 -4 5 7 13 11 18 8 10 -7 63 35 63 50 0
5 16 9 35 9 36 -1 56 -23 33 -38 -9 -5 -9 -8 -1 -8 6 0 10 -10 9 -23 -3 -20 1
-23 23 -20 23 4 24 3 8 -7 -11 -7 -33 -9 -51 -6 -18 4 -44 2 -57 -4 -18 -8 -5
-9 51 -5 107 7 121 10 130 25 6 9 10 6 15 -11 12 -37 56 -70 90 -67 22 2 32
-3 42 -22 7 -14 13 -22 13 -18 0 15 50 -36 50 -51 0 -10 3 -12 8 -5 5 8 13 5
26 -7 19 -19 19 -19 -5 -20 -13 -1 -27 -1 -31 0 -5 0 -8 -3 -8 -8 0 -5 -17
-12 -37 -15 -21 -4 -47 -9 -58 -12 l-20 -4 20 9 c11 5 33 12 48 16 41 8 62 75
24 75 -9 0 -9 -2 0 -8 16 -10 5 -50 -16 -56 -44 -13 -113 -18 -107 -8 6 10 0
9 -79 -12 -11 -3 -5 -4 13 -2 17 1 32 -1 32 -6 0 -4 -19 -8 -42 -8 -24 0 -50
-5 -58 -11 -11 -8 -5 -9 25 -5 31 4 35 4 17 -4 -31 -13 -172 -17 -196 -6 -15
7 -17 6 -11 -3 6 -10 2 -10 -16 0 -13 7 -28 12 -34 10 -5 -1 -7 0 -3 4 10 10
-20 38 -32 30 -6 -4 -7 1 -3 11 5 14 3 16 -11 11 -16 -6 -16 -5 0 23 10 16 21
27 24 25 4 -3 7 9 6 25 -1 35 -16 41 -16 6 0 -30 -29 -58 -31 -30 -1 11 -1 23
0 28 1 5 -6 3 -15 -5 -10 -8 -15 -9 -11 -3 3 6 -7 36 -23 67 -16 32 -27 63
-24 70 2 7 -4 24 -15 36 -12 13 -18 28 -15 32 3 5 1 9 -5 9 -6 0 -9 13 -7 30
2 16 -1 27 -6 24 -5 -3 -7 -13 -4 -21 3 -8 1 -11 -4 -8 -13 8 -5 51 9 48 6 -2
11 6 11 17 0 11 4 19 9 18 5 -2 23 10 40 25 17 15 36 25 41 22 6 -4 7 1 3 11
-3 10 -2 15 3 12 5 -3 23 3 39 13 34 20 63 23 85 9z m207 -9 c23 -15 33 -17
37 -8 5 9 7 9 12 -1 3 -6 9 -10 14 -7 4 3 6 -4 3 -14 -3 -12 -11 -17 -19 -14
-10 4 -12 0 -8 -13 6 -15 4 -17 -6 -7 -10 9 -19 9 -34 1 -17 -9 -19 -8 -8 3
14 16 16 33 2 24 -5 -3 -10 -1 -10 4 0 6 -6 10 -12 9 -7 -2 -12 3 -10 10 1 6
-5 12 -13 12 -8 0 -15 5 -15 10 0 16 32 11 67 -9z m2663 -19 c13 -11 20 -24
16 -30 -9 -15 -43 -16 -51 -2 -7 11 -58 14 -68 3 -15 -14 18 -33 57 -33 54 0
86 -22 86 -60 0 -67 -100 -94 -161 -43 l-32 28 24 6 c14 3 31 0 40 -8 21 -18
64 -17 80 3 17 20 -2 34 -48 34 -49 0 -82 17 -89 45 -15 60 91 101 146 57z
m-2747 -13 c48 -13 65 -44 45 -85 -12 -27 -18 -29 -68 -29 -60 0 -70 -6 -70
-47 0 -23 -4 -28 -25 -28 -14 0 -25 6 -25 12 0 13 29 162 36 186 4 14 22 12
107 -9z m2227 12 c0 -4 12 -7 28 -5 15 2 19 1 10 -2 -26 -8 -22 -19 7 -20 13
-1 32 -9 41 -18 15 -16 15 -18 -2 -31 -31 -23 -49 -17 -63 20 -7 19 -16 35
-21 35 -4 0 -10 7 -14 15 -3 8 -1 15 4 15 6 0 10 -4 10 -9z m-1947 -45 c12 -9
14 -16 8 -21 -6 -3 -11 -1 -11 4 0 6 -7 11 -15 11 -8 0 -15 5 -15 10 0 14 11
12 33 -4z m2221 -2 c8 -21 12 -18 -52 -46 -48 -21 -52 -25 -40 -41 13 -18 16
-18 63 7 37 20 50 23 57 14 13 -22 10 -26 -37 -47 -49 -22 -50 -23 -35 -51 10
-18 12 -18 61 6 47 24 85 26 77 4 -2 -5 -35 -25 -75 -44 l-72 -35 -32 52 c-18
29 -42 68 -55 88 l-23 37 67 34 c79 41 88 43 96 22z m-2210 -79 c3 -9 6 -21 6
-26 0 -18 -41 -49 -65 -49 -21 0 -24 -3 -17 -17 5 -10 12 -35 16 -56 l7 -38
-29 15 c-24 13 -30 23 -35 62 -4 41 -18 63 -38 64 -4 0 -14 -18 -23 -39 -12
-32 -19 -38 -36 -34 -28 7 -24 22 30 119 l45 82 66 -34 c37 -18 69 -40 73 -49z
m58 45 c10 0 18 -6 18 -14 0 -8 6 -17 13 -20 8 -4 7 -5 -3 -5 -32 2 -40 -2
-41 -18 -1 -10 -7 2 -14 27 -7 25 -13 39 -14 31 -1 -8 -4 -12 -7 -8 -3 3 -3
11 1 17 5 9 10 9 18 1 6 -6 19 -11 29 -11z m1967 -26 c-13 -14 -25 -20 -27
-14 -2 6 4 18 14 25 31 24 39 17 13 -11z m-1913 -48 c3 -8 -12 -45 -33 -83
-63 -113 -57 -107 -82 -94 -21 12 -21 12 -3 39 11 15 34 55 51 90 30 60 55 78
67 48z m1930 -21 c16 -24 12 -65 -7 -65 -6 0 -7 -5 -4 -10 4 -6 12 -10 18 -8
16 3 87 -24 87 -34 0 -4 -9 -12 -21 -18 -16 -9 -30 -7 -65 9 -74 35 -101 23
-63 -30 20 -29 18 -43 -7 -51 -13 -4 -128 161 -119 171 4 3 28 18 53 33 61 35
106 36 128 3z m-195 -29 c-16 -26 -18 -36 -9 -40 7 -3 -5 -4 -27 -1 -22 2 -44
5 -50 5 -9 0 93 70 103 70 2 0 -6 -15 -17 -34z m-1643 -26 c16 0 16 -1 -13
-72 -14 -34 -22 -64 -19 -67 3 -3 8 -1 12 5 4 6 26 27 50 48 40 36 44 38 72
26 35 -15 36 -20 10 -49 -10 -13 -36 -50 -57 -82 -38 -59 -59 -72 -69 -44 -4
9 11 35 35 64 66 78 49 80 -33 3 -39 -36 -49 -41 -66 -32 -11 6 -20 12 -20 14
0 2 14 34 30 72 17 37 28 69 26 72 -3 2 -22 -23 -43 -56 -35 -57 -63 -76 -78
-52 -3 5 14 35 38 67 24 32 52 71 62 86 16 25 19 26 35 12 9 -8 22 -15 28 -15z
m1641 -88 c42 -32 85 -64 96 -70 19 -10 18 -11 -8 -23 -23 -10 -30 -10 -46 5
-17 16 -21 16 -55 0 -28 -14 -36 -24 -36 -45 0 -24 -24 -58 -35 -48 -2 3 -11
52 -20 109 -14 98 -14 106 2 118 9 6 19 12 22 12 2 0 38 -26 80 -58z m-149 29
c0 -19 -8 -20 -60 -12 -6 1 42 29 53 30 4 1 7 -8 7 -18z m-19 -52 c28 -14 42
-55 28 -81 -6 -11 -26 -26 -45 -34 -39 -16 -41 -24 -17 -60 14 -22 14 -27 2
-35 -8 -5 -19 -9 -24 -9 -10 0 -95 161 -95 179 0 10 94 50 118 50 7 1 22 -4
33 -10z m-1311 -9 c0 -6 -11 -33 -25 -60 -39 -77 -32 -110 24 -110 13 0 28 21
50 70 22 50 36 70 49 70 10 0 21 -2 24 -5 9 -10 -70 -162 -87 -169 -30 -11
-70 -6 -102 14 -42 25 -43 54 -3 138 22 46 34 62 50 62 11 0 20 -5 20 -10z
m1140 -70 c24 -24 25 -47 3 -72 -9 -10 -14 -19 -12 -21 2 -1 22 -12 44 -23 46
-25 54 -40 25 -49 -14 -4 -35 3 -67 24 -51 34 -52 34 -71 22 -11 -6 -9 -15 7
-44 l21 -37 -26 -6 c-14 -4 -26 -5 -27 -3 -14 22 -68 172 -65 181 4 11 98 45
131 47 9 1 26 -8 37 -19z m-928 -14 c23 -5 58 -48 58 -71 0 -14 -35 -2 -56 20
-13 14 -32 25 -43 25 -39 0 -32 -20 18 -51 28 -18 53 -40 57 -51 8 -25 -20
-66 -50 -74 -33 -8 -104 13 -116 36 -16 30 -13 63 6 56 9 -3 20 -6 25 -6 5 0
9 -9 9 -20 0 -21 38 -37 65 -26 27 10 16 33 -24 50 -46 21 -70 59 -55 84 13
20 52 42 68 37 6 -2 23 -6 38 -9z m223 -16 c-3 -5 -16 -10 -28 -9 -21 0 -21 1
-2 9 28 12 37 12 30 0z m115 -11 c0 -6 -4 -7 -10 -4 -5 3 -10 -1 -10 -11 0
-14 -3 -14 -15 -4 -13 11 -14 10 -9 -5 5 -13 4 -16 -4 -11 -7 4 -12 13 -12 21
0 7 -6 15 -12 18 -7 2 6 5 30 5 23 0 42 -4 42 -9z m405 -9 c0 -10 -17 -18 -53
-25 -29 -6 -53 -14 -52 -18 0 -4 0 -14 0 -23 0 -12 6 -15 23 -10 12 3 39 9 60
12 32 6 37 4 37 -14 0 -16 -9 -21 -55 -27 -51 -6 -55 -8 -49 -28 10 -32 10
-32 71 -19 45 9 59 9 65 -1 4 -6 4 -15 0 -18 -9 -9 -155 -39 -163 -33 -3 2 -9
21 -13 41 -3 21 -11 55 -16 76 -10 32 -15 37 -42 37 l-30 0 7 -85 7 -85 -26 0
c-26 0 -26 0 -26 85 l0 85 -39 0 c-32 0 -38 3 -35 18 4 14 19 18 92 20 48 2
114 10 147 17 72 16 90 15 90 -5z m-555 -38 c0 -16 -3 -63 -6 -105 -7 -74 -8
-77 -32 -77 -23 0 -24 3 -18 38 3 20 6 67 6 105 0 65 1 67 25 67 21 0 25 -5
25 -28z m200 -39 c0 -38 3 -85 6 -105 6 -36 5 -38 -19 -38 -20 0 -35 13 -68
60 -23 33 -46 60 -51 60 -5 0 -7 -3 -4 -8 2 -4 6 -32 7 -61 3 -50 1 -55 -19
-56 -21 -2 -22 2 -22 79 0 45 -3 91 -6 104 -5 19 -2 22 19 22 20 0 36 -14 72
-65 26 -36 48 -65 49 -65 1 0 -1 28 -5 62 -8 70 -6 78 22 78 17 0 19 -7 19
-67z m-1070 49 c0 -5 -17 -9 -37 -9 -33 -1 -35 0 -13 7 35 11 50 11 50 2z
m2068 -56 c2 -17 9 -40 16 -52 17 -25 19 -116 3 -126 -9 -6 -8 -8 2 -8 11 0
11 -3 1 -15 -21 -25 -30 -17 -30 28 0 46 -18 121 -37 152 -21 36 -24 9 -3 -36
39 -87 22 -168 -36 -169 -24 0 -93 49 -94 68 0 6 -4 12 -8 12 -5 0 -9 6 -9 13
0 6 -4 24 -7 38 -6 20 -3 28 11 32 29 10 119 62 137 79 26 27 52 19 54 -16z
m-1556 -100 c29 -13 91 -38 138 -56 122 -45 114 -38 111 -106 -1 -32 -4 -60
-5 -62 -9 -8 -88 -13 -82 -4 3 6 -18 9 -55 8 -34 0 -63 3 -66 7 -3 5 -16 6
-28 3 -13 -3 -25 -2 -27 4 -2 5 -38 10 -80 11 -43 1 -78 5 -78 10 0 5 -7 5
-17 2 -11 -4 -14 -3 -9 5 4 7 2 12 -4 12 -7 0 -10 7 -7 14 4 11 1 13 -10 9
-10 -4 -14 -2 -10 4 4 6 2 13 -4 15 -6 2 -11 21 -11 43 0 69 4 81 13 37 4 -23
15 -49 23 -57 38 -38 101 -1 131 78 10 26 19 47 21 47 2 0 27 -11 56 -24z"/>
<path d="M3061 779 c-13 -5 -22 -12 -19 -14 3 -3 17 -1 31 4 14 6 43 8 64 5
29 -4 34 -3 23 5 -18 13 -67 13 -99 0z"/>
<path d="M3220 765 c0 -2 15 -12 33 -20 l32 -16 -25 20 c-24 20 -40 26 -40 16z"/>
<path d="M2957 748 c-7 -5 4 -5 23 -2 l35 5 -43 -20 c-23 -11 -50 -18 -60 -15
-16 5 -16 5 1 -6 17 -11 74 1 103 22 6 4 46 9 90 10 59 2 87 -1 112 -14 18 -9
30 -12 26 -7 -13 22 -64 32 -167 33 -60 1 -114 -2 -120 -6z"/>
<path d="M2877 691 c2 -8 -2 -11 -11 -8 -10 4 -13 1 -9 -9 4 -10 0 -12 -13 -7
-11 4 -15 3 -11 -4 8 -13 -18 -37 -32 -29 -5 4 -13 1 -17 -5 -4 -7 -3 -9 4 -5
5 3 12 1 14 -6 3 -8 11 -5 25 8 31 29 59 51 74 57 10 4 10 6 -3 6 -9 1 -18 4
-21 9 -2 4 -2 1 0 -7z"/>
<path d="M2295 386 c-27 -13 -61 -28 -75 -34 -24 -11 -24 -11 5 -5 38 7 155
62 135 62 -8 1 -37 -10 -65 -23z"/>
<path d="M2394 377 c3 -10 6 -25 6 -33 0 -8 5 -14 11 -14 12 0 2 40 -14 55 -7
7 -8 4 -3 -8z"/>
<path d="M490 771 c0 -8 -6 -11 -17 -6 -14 5 -15 3 -7 -5 18 -18 46 -9 34 10
-7 12 -10 12 -10 1z"/>
<path d="M300 748 c0 -4 26 -7 58 -7 75 1 128 -9 169 -33 19 -12 33 -15 33 -9
0 6 7 11 16 11 10 0 14 -6 11 -14 -3 -8 0 -18 6 -23 17 -12 50 -10 54 3 2 7
-6 10 -22 6 -20 -3 -24 -1 -19 11 4 11 -4 21 -25 31 -27 14 -30 14 -25 1 8
-19 -5 -19 -31 -1 -41 29 -225 49 -225 24z"/>
<path d="M239 723 c-13 -15 -12 -15 11 -3 34 17 36 20 18 20 -9 0 -22 -7 -29
-17z"/>
<path d="M210 601 c12 -24 40 -33 77 -26 15 3 22 2 16 -1 -28 -13 -10 -21 45
-21 l57 0 -45 7 c-40 6 -35 7 40 10 l85 3 -90 9 c-49 5 -108 10 -129 11 -22 1
-41 8 -44 15 -2 6 -8 12 -13 12 -6 0 -6 -8 1 -19z"/>
<path d="M615 600 c-13 -5 -14 -9 -5 -9 8 0 24 4 35 9 13 5 14 9 5 9 -8 0 -24
-4 -35 -9z"/>
<path d="M330 986 c0 -18 7 -25 28 -29 29 -6 52 7 52 28 0 15 -22 25 -56 25
-19 0 -24 -5 -24 -24z"/>
<path d="M560 930 c-9 -17 -6 -21 26 -35 28 -11 40 -12 50 -4 21 17 17 27 -16
44 -38 20 -47 19 -60 -5z"/>
<path d="M2637 844 c-23 -12 -26 -18 -17 -34 13 -24 13 -24 51 -4 19 9 29 21
27 32 -4 22 -27 25 -61 6z"/>
<path d="M2473 699 c3 -27 8 -33 23 -31 35 6 36 19 4 42 l-31 22 4 -33z"/>
<path d="M2293 668 c-18 -9 -20 -14 -11 -34 13 -29 25 -30 57 -5 45 34 8 65
-46 39z"/>
<path d="M2107 598 c-22 -8 -26 -14 -21 -31 4 -12 7 -23 8 -24 1 -1 19 3 39 9
30 9 37 16 35 32 -4 24 -22 29 -61 14z"/>
<path d="M1170 750 c62 -33 91 -40 66 -14 -9 8 -20 12 -26 9 -5 -3 -10 -2 -10
3 0 11 -45 32 -68 32 -9 0 8 -13 38 -30z"/>
</g>
</svg>
